<?xml version="1.0" encoding="utf-8"?>
<!-- Generator: Adobe Illustrator 17.0.0, SVG Export Plug-In . SVG Version: 6.00 Build 0)  -->
<!DOCTYPE svg PUBLIC "-//W3C//DTD SVG 1.1//EN" "http://www.w3.org/Graphics/SVG/1.1/DTD/svg11.dtd">
<svg version="1.1" id="Слой_1" xmlns="http://www.w3.org/2000/svg" xmlns:xlink="http://www.w3.org/1999/xlink" x="0px" y="0px"
	 width="3869.99px" height="1303.812px" viewBox="1873.979 2719.799 3869.99 1303.812"
	 enable-background="new 1873.979 2719.799 3869.99 1303.812" xml:space="preserve">
<g>
	<path fill="#FFFFFF" d="M2961.298,3627.003h-298.081V3108.6h-12.96l-220.321,259.202L2209.615,3108.6h-12.96v518.403h-298.081
		v-907.204h324.001l207.361,246.241l207.361-246.241h324.001V3627.003z"/>
	<path fill="#FFFFFF" d="M3700.014,3627.003l-32.4-142.561h-311.041l-32.4,142.561h-298.081l220.321-907.204h531.362
		l220.321,907.204H3700.014z M3473.213,2991.96l-51.84,220.321h181.44l-51.84-220.321H3473.213z"/>
	<path fill="#FFFFFF" d="M4062.891,3627.003v-907.204h764.644V2979h-466.562v103.68h362.881v259.202h-362.881v285.121H4062.891z"/>
	<path fill="#FFFFFF" d="M5436.649,3627.003l-32.4-142.561h-311.041l-32.4,142.561h-298.081l220.321-907.204h531.361
		l220.321,907.204H5436.649z M5209.849,2991.96l-51.841,220.321h181.441l-51.841-220.321H5209.849z"/>
</g>
<g>
	<path fill="#FFFFFF" d="M3378.5,3992.75c-13.667-6.167-25.583-14.75-35.75-25.75s-18.333-23.917-24.5-38.75
		s-9.25-31.083-9.25-48.75c0-17.333,3.083-33.5,9.25-48.5s14.333-28,24.5-39s22.083-19.583,35.75-25.75s28-9.25,43-9.25
		c13.667,0,25.833,1.75,36.5,5.25s19.917,8.25,27.75,14.25s14.25,12.917,19.25,20.75s8.833,16.083,11.5,24.75h-15
		c-2.667-7-6.083-13.5-10.25-19.5s-9.417-11.25-15.75-15.75s-13.917-8.083-22.75-10.75s-19.25-4-31.25-4c-13,0-25.417,2.667-37.25,8
		s-22.25,12.75-31.25,22.25s-16.083,20.833-21.25,34s-7.75,27.583-7.75,43.25s2.583,30.083,7.75,43.25s12.25,24.5,21.25,34
		s19.417,16.917,31.25,22.25s24.25,8,37.25,8c12,0,22.833-1.75,32.5-5.25s18.167-8,25.5-13.5s13.417-11.833,18.25-19
		s8.583-14.583,11.25-22.25h15c-2.667,9.333-6.917,18.5-12.75,27.5s-13.083,17-21.75,24s-18.75,12.667-30.25,17
		s-24.083,6.5-37.75,6.5C3406.5,4002,3392.167,3998.917,3378.5,3992.75z"/>
	<path fill="#FFFFFF" d="M3784.747,3928.25c-6.167,14.833-14.5,27.75-25,38.75s-22.667,19.583-36.5,25.75s-28.583,9.25-44.25,9.25
		s-30.417-3.083-44.25-9.25s-26-14.75-36.5-25.75s-18.833-23.917-25-38.75s-9.25-31.083-9.25-48.75c0-17.333,3.083-33.5,9.25-48.5
		s14.5-28,25-39s22.667-19.583,36.5-25.75s28.583-9.25,44.25-9.25s30.417,3.083,44.25,9.25s26,14.75,36.5,25.75s18.833,24,25,39
		s9.25,31.167,9.25,48.5C3793.997,3897.167,3790.914,3913.417,3784.747,3928.25z M3770.997,3836.25c-5.333-13.167-12.5-24.5-21.5-34
		s-19.583-16.917-31.75-22.25s-25.083-8-38.75-8s-26.583,2.667-38.75,8s-22.75,12.75-31.75,22.25s-16.167,20.833-21.5,34
		s-8,27.583-8,43.25s2.667,30.083,8,43.25s12.5,24.5,21.5,34s19.583,16.917,31.75,22.25s25.083,8,38.75,8s26.583-2.667,38.75-8
		s22.75-12.75,31.75-22.25s16.167-20.833,21.5-34s8-27.583,8-43.25S3776.331,3849.417,3770.997,3836.25z"/>
	<path fill="#FFFFFF" d="M3838.996,3829.5h175v15h-175V3829.5z"/>
	<path fill="#FFFFFF" d="M4128.492,3992.75c-13.666-6.167-25.584-14.75-35.75-25.75s-18.334-23.917-24.5-38.75
		s-9.25-31.083-9.25-48.75c0-17.333,3.084-33.5,9.25-48.5s14.334-28,24.5-39s22.084-19.583,35.75-25.75s28-9.25,43-9.25
		c13.666,0,25.834,1.75,36.5,5.25s19.916,8.25,27.75,14.25s14.25,12.917,19.25,20.75s8.834,16.083,11.5,24.75h-15
		c-2.666-7-6.084-13.5-10.25-19.5s-9.416-11.25-15.75-15.75s-13.916-8.083-22.75-10.75s-19.25-4-31.25-4c-13,0-25.416,2.667-37.25,8
		s-22.25,12.75-31.25,22.25s-16.084,20.833-21.25,34s-7.75,27.583-7.75,43.25s2.584,30.083,7.75,43.25s12.25,24.5,21.25,34
		s19.416,16.917,31.25,22.25s24.25,8,37.25,8c12,0,22.834-1.75,32.5-5.25s18.166-8,25.5-13.5s13.416-11.833,18.25-19
		s8.584-14.583,11.25-22.25h15c-2.666,9.333-6.916,18.5-12.75,27.5s-13.084,17-21.75,24s-18.75,12.667-30.25,17
		s-24.084,6.5-37.75,6.5C4156.492,4002,4142.158,3998.917,4128.492,3992.75z"/>
	<path fill="#FFFFFF" d="M4433.986,3772c-14.666,0-27.416,3.083-38.25,9.25c-10.833,6.167-19.916,13.083-27.25,20.75
		c-8.666,8.667-16,18.667-22,30v160h-15v-225h15v40h2.5c6-9.333,13.334-17.667,22-25c7.334-6.333,16.167-12.083,26.5-17.25
		c10.334-5.167,22.5-7.75,36.5-7.75h5v15H4433.986z"/>
	<path fill="#FFFFFF" d="M4611.483,3766.25c13,6.167,24.5,14.667,34.5,25.5s18,23.5,24,38s9,30.25,9,47.25l-10,10h-190
		c0.667,14.333,3.667,27.583,9,39.75s12.333,22.75,21,31.75s18.833,16,30.5,21s24,7.5,37,7.5c12,0,22.833-1.75,32.5-5.25
		s18.167-8,25.5-13.5s13.417-11.833,18.25-19s8.583-14.583,11.25-22.25h15c-2.667,9.333-6.917,18.5-12.75,27.5s-13.083,17-21.75,24
		s-18.75,12.667-30.25,17s-24.083,6.5-37.75,6.5c-15,0-29.333-3.083-43-9.25s-25.583-14.75-35.75-25.75s-18.333-23.917-24.5-38.75
		s-9.25-31.083-9.25-48.75c0-17.333,3-33.5,9-48.5s14-28,24-39s21.5-19.583,34.5-25.75s26.333-9.25,40-9.25
		S4598.483,3760.083,4611.483,3766.25z M4537.233,3779.5c-10.833,5-20.5,12-29,21s-15.333,19.583-20.5,31.75
		s-8.083,25.417-8.75,39.75h185c-0.667-14.333-3.583-27.583-8.75-39.75s-12-22.75-20.5-31.75s-18.167-16-29-21s-22.25-7.5-34.25-7.5
		S4548.066,3774.5,4537.233,3779.5z"/>
	<path fill="#FFFFFF" d="M4918.98,3952c-6,9.333-13.334,17.667-22,25c-7.334,6.333-16.25,12.083-26.75,17.25
		s-22.584,7.75-36.25,7.75s-27-3.083-40-9.25s-24.5-14.75-34.5-25.75s-18-23.917-24-38.75s-9-31.083-9-48.75c0-17.333,3-33.5,9-48.5
		s14-28,24-39s21.5-19.583,34.5-25.75s26.334-9.25,40-9.25c14,0,26.166,2.583,36.5,7.75s19.166,10.917,26.5,17.25
		c8.666,7.333,16,15.667,22,25h2.5v-40h15v225h-15v-40H4918.98z M4899.48,3802c-7.334-7.667-16.5-14.583-27.5-20.75
		s-23.666-9.25-38-9.25c-12,0-23.5,2.667-34.5,8s-20.834,12.75-29.5,22.25s-15.584,20.833-20.75,34s-7.75,27.583-7.75,43.25
		s2.584,30.083,7.75,43.25s12.084,24.5,20.75,34s18.5,16.917,29.5,22.25s22.5,8,34.5,8c14.334,0,27-3.083,38-9.25
		s20.166-13.083,27.5-20.75c8.666-8.667,16-18.667,22-30v-95C4915.48,3820.667,4908.146,3810.667,4899.48,3802z"/>
	<path fill="#FFFFFF" d="M5021.479,3767v-65h15v65h70v15h-70v152.5c0,16.333,4.417,29.167,13.25,38.5s20.25,14,34.25,14
		c5,0,9.667-0.5,14-1.5s8.333-2.167,12-3.5c4-1.333,7.833-3,11.5-5v15c-3.667,2-7.5,3.667-11.5,5c-3.667,1.333-7.667,2.5-12,3.5
		s-9,1.5-14,1.5c-8.667,0-16.833-1.667-24.5-5s-14.333-7.917-20-13.75s-10.083-12.917-13.25-21.25s-4.75-17.5-4.75-27.5V3782h-37.5
		v-15H5021.479z"/>
	<path fill="#FFFFFF" d="M5181.476,3657c8.333,0,12.5,4.167,12.5,12.5s-4.167,12.5-12.5,12.5s-12.5-4.167-12.5-12.5
		S5173.143,3657,5181.476,3657z M5188.976,3767v225h-15v-225H5188.976z"/>
	<path fill="#FFFFFF" d="M5474.72,3928.25c-6.167,14.833-14.5,27.75-25,38.75s-22.667,19.583-36.5,25.75s-28.583,9.25-44.25,9.25
		s-30.417-3.083-44.25-9.25s-26-14.75-36.5-25.75s-18.833-23.917-25-38.75s-9.25-31.083-9.25-48.75c0-17.333,3.083-33.5,9.25-48.5
		s14.5-28,25-39s22.667-19.583,36.5-25.75s28.583-9.25,44.25-9.25s30.417,3.083,44.25,9.25s26,14.75,36.5,25.75s18.833,24,25,39
		s9.25,31.167,9.25,48.5C5483.97,3897.167,5480.887,3913.417,5474.72,3928.25z M5460.97,3836.25c-5.333-13.167-12.5-24.5-21.5-34
		s-19.583-16.917-31.75-22.25s-25.083-8-38.75-8s-26.583,2.667-38.75,8s-22.75,12.75-31.75,22.25s-16.167,20.833-21.5,34
		s-8,27.583-8,43.25s2.667,30.083,8,43.25s12.5,24.5,21.5,34s19.583,16.917,31.75,22.25s25.083,8,38.75,8s26.583-2.667,38.75-8
		s22.75-12.75,31.75-22.25s16.167-20.833,21.5-34s8-27.583,8-43.25S5466.303,3849.417,5460.97,3836.25z"/>
	<path fill="#FFFFFF" d="M5728.969,3992v-135c0-26.333-7.333-47.083-22-62.25s-34-22.75-58-22.75c-14.667,0-27.417,3.083-38.25,9.25
		s-19.917,13.083-27.25,20.75c-8.667,8.667-16,18.667-22,30v160h-15v-225h15v40h2.5c6-9.333,13.333-17.667,22-25
		c7.333-6.333,16.167-12.083,26.5-17.25s22.5-7.75,36.5-7.75c13.667,0,26.333,2.417,38,7.25s21.75,11.583,30.25,20.25
		s15.083,19.167,19.75,31.5s7,26,7,41v135H5728.969z"/>
</g>
<g display="none">
	<path display="inline" fill="#FFFFFF" d="M2961.298,3627.003h-298.081V3108.6h-12.96l-220.321,259.202L2209.615,3108.6h-12.96
		v518.403h-298.081v-907.204h324.001l207.361,246.241l207.361-246.241h324.001V3627.003z"/>
	<path display="inline" fill="#FFFFFF" d="M3700.014,3627.003l-32.4-142.561h-311.041l-32.4,142.561h-298.081l220.321-907.204
		h531.362l220.321,907.204H3700.014z M3473.213,2991.96l-51.84,220.321h181.44l-51.84-220.321H3473.213z"/>
	<path display="inline" fill="#FFFFFF" d="M4062.891,3627.003v-907.204h764.644V2979h-466.562v103.68h362.881v259.202h-362.881
		v285.121H4062.891z"/>
	<path display="inline" fill="#FFFFFF" d="M5436.649,3627.003l-32.4-142.561h-311.041l-32.4,142.561h-298.081l220.321-907.204
		h531.361l220.321,907.204H5436.649z M5209.849,2991.96l-51.841,220.321h181.441l-51.841-220.321H5209.849z"/>
</g>
<g display="none">
	<path display="inline" fill="#FFFFFF" d="M3378.5,3992.75c-13.667-6.167-25.583-14.75-35.75-25.75s-18.333-23.917-24.5-38.75
		s-9.25-31.083-9.25-48.75c0-17.333,3.083-33.5,9.25-48.5s14.333-28,24.5-39s22.083-19.583,35.75-25.75s28-9.25,43-9.25
		c13.667,0,25.833,1.75,36.5,5.25s19.917,8.25,27.75,14.25s14.25,12.917,19.25,20.75s8.833,16.083,11.5,24.75h-15
		c-2.667-7-6.083-13.5-10.25-19.5s-9.417-11.25-15.75-15.75s-13.917-8.083-22.75-10.75s-19.25-4-31.25-4c-13,0-25.417,2.667-37.25,8
		s-22.25,12.75-31.25,22.25s-16.083,20.833-21.25,34s-7.75,27.583-7.75,43.25s2.583,30.083,7.75,43.25s12.25,24.5,21.25,34
		s19.417,16.917,31.25,22.25s24.25,8,37.25,8c12,0,22.833-1.75,32.5-5.25s18.167-8,25.5-13.5s13.417-11.833,18.25-19
		s8.583-14.583,11.25-22.25h15c-2.667,9.333-6.917,18.5-12.75,27.5s-13.083,17-21.75,24s-18.75,12.667-30.25,17
		s-24.083,6.5-37.75,6.5C3406.5,4002,3392.167,3998.917,3378.5,3992.75z"/>
	<path display="inline" fill="#FFFFFF" d="M3784.747,3928.25c-6.167,14.833-14.5,27.75-25,38.75s-22.667,19.583-36.5,25.75
		s-28.583,9.25-44.25,9.25s-30.417-3.083-44.25-9.25s-26-14.75-36.5-25.75s-18.833-23.917-25-38.75s-9.25-31.083-9.25-48.75
		c0-17.333,3.083-33.5,9.25-48.5s14.5-28,25-39s22.667-19.583,36.5-25.75s28.583-9.25,44.25-9.25s30.417,3.083,44.25,9.25
		s26,14.75,36.5,25.75s18.833,24,25,39s9.25,31.167,9.25,48.5C3793.997,3897.167,3790.914,3913.417,3784.747,3928.25z
		 M3770.997,3836.25c-5.333-13.167-12.5-24.5-21.5-34s-19.583-16.917-31.75-22.25s-25.083-8-38.75-8s-26.583,2.667-38.75,8
		s-22.75,12.75-31.75,22.25s-16.167,20.833-21.5,34s-8,27.583-8,43.25s2.667,30.083,8,43.25s12.5,24.5,21.5,34
		s19.583,16.917,31.75,22.25s25.083,8,38.75,8s26.583-2.667,38.75-8s22.75-12.75,31.75-22.25s16.167-20.833,21.5-34
		s8-27.583,8-43.25S3776.331,3849.417,3770.997,3836.25z"/>
	<path display="inline" fill="#FFFFFF" d="M3838.996,3829.5h175v15h-175V3829.5z"/>
	<path display="inline" fill="#FFFFFF" d="M4128.492,3992.75c-13.666-6.167-25.584-14.75-35.75-25.75s-18.334-23.917-24.5-38.75
		s-9.25-31.083-9.25-48.75c0-17.333,3.084-33.5,9.25-48.5s14.334-28,24.5-39s22.084-19.583,35.75-25.75s28-9.25,43-9.25
		c13.666,0,25.834,1.75,36.5,5.25s19.916,8.25,27.75,14.25s14.25,12.917,19.25,20.75s8.834,16.083,11.5,24.75h-15
		c-2.666-7-6.084-13.5-10.25-19.5s-9.416-11.25-15.75-15.75s-13.916-8.083-22.75-10.75s-19.25-4-31.25-4c-13,0-25.416,2.667-37.25,8
		s-22.25,12.75-31.25,22.25s-16.084,20.833-21.25,34s-7.75,27.583-7.75,43.25s2.584,30.083,7.75,43.25s12.25,24.5,21.25,34
		s19.416,16.917,31.25,22.25s24.25,8,37.25,8c12,0,22.834-1.75,32.5-5.25s18.166-8,25.5-13.5s13.416-11.833,18.25-19
		s8.584-14.583,11.25-22.25h15c-2.666,9.333-6.916,18.5-12.75,27.5s-13.084,17-21.75,24s-18.75,12.667-30.25,17
		s-24.084,6.5-37.75,6.5C4156.492,4002,4142.158,3998.917,4128.492,3992.75z"/>
	<path display="inline" fill="#FFFFFF" d="M4433.986,3772c-14.666,0-27.416,3.083-38.25,9.25
		c-10.833,6.167-19.916,13.083-27.25,20.75c-8.666,8.667-16,18.667-22,30v160h-15v-225h15v40h2.5c6-9.333,13.334-17.667,22-25
		c7.334-6.333,16.167-12.083,26.5-17.25c10.334-5.167,22.5-7.75,36.5-7.75h5v15H4433.986z"/>
	<path display="inline" fill="#FFFFFF" d="M4611.483,3766.25c13,6.167,24.5,14.667,34.5,25.5s18,23.5,24,38s9,30.25,9,47.25l-10,10
		h-190c0.667,14.333,3.667,27.583,9,39.75s12.333,22.75,21,31.75s18.833,16,30.5,21s24,7.5,37,7.5c12,0,22.833-1.75,32.5-5.25
		s18.167-8,25.5-13.5s13.417-11.833,18.25-19s8.583-14.583,11.25-22.25h15c-2.667,9.333-6.917,18.5-12.75,27.5s-13.083,17-21.75,24
		s-18.75,12.667-30.25,17s-24.083,6.5-37.75,6.5c-15,0-29.333-3.083-43-9.25s-25.583-14.75-35.75-25.75s-18.333-23.917-24.5-38.75
		s-9.25-31.083-9.25-48.75c0-17.333,3-33.5,9-48.5s14-28,24-39s21.5-19.583,34.5-25.75s26.333-9.25,40-9.25
		S4598.483,3760.083,4611.483,3766.25z M4537.233,3779.5c-10.833,5-20.5,12-29,21s-15.333,19.583-20.5,31.75
		s-8.083,25.417-8.75,39.75h185c-0.667-14.333-3.583-27.583-8.75-39.75s-12-22.75-20.5-31.75s-18.167-16-29-21s-22.25-7.5-34.25-7.5
		S4548.066,3774.5,4537.233,3779.5z"/>
	<path display="inline" fill="#FFFFFF" d="M4918.98,3952c-6,9.333-13.334,17.667-22,25c-7.334,6.333-16.25,12.083-26.75,17.25
		s-22.584,7.75-36.25,7.75s-27-3.083-40-9.25s-24.5-14.75-34.5-25.75s-18-23.917-24-38.75s-9-31.083-9-48.75c0-17.333,3-33.5,9-48.5
		s14-28,24-39s21.5-19.583,34.5-25.75s26.334-9.25,40-9.25c14,0,26.166,2.583,36.5,7.75s19.166,10.917,26.5,17.25
		c8.666,7.333,16,15.667,22,25h2.5v-40h15v225h-15v-40H4918.98z M4899.48,3802c-7.334-7.667-16.5-14.583-27.5-20.75
		s-23.666-9.25-38-9.25c-12,0-23.5,2.667-34.5,8s-20.834,12.75-29.5,22.25s-15.584,20.833-20.75,34s-7.75,27.583-7.75,43.25
		s2.584,30.083,7.75,43.25s12.084,24.5,20.75,34s18.5,16.917,29.5,22.25s22.5,8,34.5,8c14.334,0,27-3.083,38-9.25
		s20.166-13.083,27.5-20.75c8.666-8.667,16-18.667,22-30v-95C4915.48,3820.667,4908.146,3810.667,4899.48,3802z"/>
	<path display="inline" fill="#FFFFFF" d="M5021.479,3767v-65h15v65h70v15h-70v152.5c0,16.333,4.417,29.167,13.25,38.5
		s20.25,14,34.25,14c5,0,9.667-0.5,14-1.5s8.333-2.167,12-3.5c4-1.333,7.833-3,11.5-5v15c-3.667,2-7.5,3.667-11.5,5
		c-3.667,1.333-7.667,2.5-12,3.5s-9,1.5-14,1.5c-8.667,0-16.833-1.667-24.5-5s-14.333-7.917-20-13.75s-10.083-12.917-13.25-21.25
		s-4.75-17.5-4.75-27.5V3782h-37.5v-15H5021.479z"/>
	<path display="inline" fill="#FFFFFF" d="M5181.476,3657c8.333,0,12.5,4.167,12.5,12.5s-4.167,12.5-12.5,12.5
		s-12.5-4.167-12.5-12.5S5173.143,3657,5181.476,3657z M5188.976,3767v225h-15v-225H5188.976z"/>
	<path display="inline" fill="#FFFFFF" d="M5474.72,3928.25c-6.167,14.833-14.5,27.75-25,38.75s-22.667,19.583-36.5,25.75
		s-28.583,9.25-44.25,9.25s-30.417-3.083-44.25-9.25s-26-14.75-36.5-25.75s-18.833-23.917-25-38.75s-9.25-31.083-9.25-48.75
		c0-17.333,3.083-33.5,9.25-48.5s14.5-28,25-39s22.667-19.583,36.5-25.75s28.583-9.25,44.25-9.25s30.417,3.083,44.25,9.25
		s26,14.75,36.5,25.75s18.833,24,25,39s9.25,31.167,9.25,48.5C5483.97,3897.167,5480.887,3913.417,5474.72,3928.25z
		 M5460.97,3836.25c-5.333-13.167-12.5-24.5-21.5-34s-19.583-16.917-31.75-22.25s-25.083-8-38.75-8s-26.583,2.667-38.75,8
		s-22.75,12.75-31.75,22.25s-16.167,20.833-21.5,34s-8,27.583-8,43.25s2.667,30.083,8,43.25s12.5,24.5,21.5,34
		s19.583,16.917,31.75,22.25s25.083,8,38.75,8s26.583-2.667,38.75-8s22.75-12.75,31.75-22.25s16.167-20.833,21.5-34
		s8-27.583,8-43.25S5466.303,3849.417,5460.97,3836.25z"/>
	<path display="inline" fill="#FFFFFF" d="M5728.969,3992v-135c0-26.333-7.333-47.083-22-62.25s-34-22.75-58-22.75
		c-14.667,0-27.417,3.083-38.25,9.25s-19.917,13.083-27.25,20.75c-8.667,8.667-16,18.667-22,30v160h-15v-225h15v40h2.5
		c6-9.333,13.333-17.667,22-25c7.333-6.333,16.167-12.083,26.5-17.25s22.5-7.75,36.5-7.75c13.667,0,26.333,2.417,38,7.25
		s21.75,11.583,30.25,20.25s15.083,19.167,19.75,31.5s7,26,7,41v135H5728.969z"/>
</g>
</svg>
